# xmcd
#
# Track frame offsets:
#  150
#  15412
#  30736
#  43006
#  58559
#  79657
#  95445
#  108384
#  127889
#  143982
#  163447
#  185213
#  197948
#  211441
#  229641
#  230086
#
# Disc length: 3288 seconds
#
# Revision: 0
# Processed by: cddbd v1.5.1PL0 Copyright (c) Steve Scherf et al.
# Submitted via: Collectorz.com Music Collector 6.9
#
DISCID=e20cd610
DTITLE=paul metsa - Texas In The Twilight
DYEAR=2005
DGENRE=
TTITLE0=Slow Justice
TTITLE1=Kisses In The Wind
TTITLE2=Party To A Crime
TTITLE3=Fires Of Jerusalem
TTITLE4=59 Coal Mines
TTITLE5=Stars Over The Prairie
TTITLE6=Floretta's Junkyard
TTITLE7=Judas Sang The Blues
TTITLE8=Another Man's Chains
TTITLE9=Seond Ave. Sunset
TTITLE10=As Good As It Gets
TTITLE11=Honeymoon In Drag Alley
TTITLE12=When The World Breaks Your Heart
TTITLE13=Robots On Death Row
TTITLE14=Texas In The Twilight
TTITLE15=Data track
EXTD=
EXTT0=
EXTT1=
EXTT2=
EXTT3=
EXTT4=
EXTT5=
EXTT6=
EXTT7=
EXTT8=
EXTT9=
EXTT10=
EXTT11=
EXTT12=
EXTT13=
EXTT14=
EXTT15=
PLAYORDER=
